<?xml version="1.0" standalone="no"?>
<!DOCTYPE svg PUBLIC "-//W3C//DTD SVG 20010904//EN"
 "http://www.w3.org/TR/2001/REC-SVG-20010904/DTD/svg10.dtd">
<svg version="1.0" xmlns="http://www.w3.org/2000/svg"
 width="2802.000000pt" height="2802.000000pt" viewBox="0 0 2802.000000 2802.000000"
 preserveAspectRatio="xMidYMid meet">
<metadata>
Created by potrace 1.14, written by Peter Selinger 2001-2017
</metadata>
<g transform="translate(0.000000,2802.000000) scale(0.100000,-0.100000)"
fill="#000000" stroke="none">
<path d="M14596 28008 c-100 -13 -206 -47 -308 -98 -54 -27 -103 -54 -110 -59
-7 -6 -40 -32 -73 -58 -142 -112 -225 -210 -333 -393 -255 -431 -350 -912
-267 -1354 l12 -69 -47 -101 c-47 -98 -79 -171 -79 -181 -1 -3 -11 -26 -25
-53 -13 -26 -29 -65 -36 -87 -7 -22 -16 -44 -20 -50 -4 -5 -10 -19 -13 -30 -3
-11 -21 -65 -41 -120 -20 -55 -56 -167 -80 -250 -50 -172 -51 -175 -84 -335
-11 -52 -23 -120 -27 -150 -4 -30 -8 -57 -10 -61 -5 -7 -18 -217 -18 -284 -1
-276 92 -581 197 -648 172 -108 297 -45 382 193 14 41 35 94 45 117 11 23 19
44 19 47 0 15 124 262 171 341 133 226 279 391 424 479 92 56 151 76 238 83
87 7 159 -8 287 -57 231 -90 326 -201 370 -430 19 -96 28 -286 16 -345 -2 -11
-7 -49 -11 -85 -4 -36 -8 -67 -10 -70 -2 -3 -6 -24 -10 -48 -3 -23 -22 -97
-41 -164 -19 -68 -36 -130 -38 -139 -3 -9 -30 -84 -61 -165 -32 -82 -64 -167
-72 -189 -36 -95 -10 -218 54 -262 77 -54 156 -62 253 -29 241 85 481 301 700
631 59 89 170 282 170 295 0 5 3 10 8 12 11 5 134 266 187 398 25 63 50 124
55 135 20 44 84 225 111 313 16 51 32 99 36 107 5 7 35 33 68 57 240 176 463
468 594 778 51 121 119 352 135 465 4 22 9 51 11 65 10 47 13 265 5 320 -15
98 -21 127 -39 192 -76 263 -249 473 -482 582 -142 68 -156 69 -549 71 -239 1
-364 5 -382 13 -16 6 -28 10 -28 7 0 -9 -87 28 -135 57 -76 48 -147 109 -290
249 -165 162 -186 180 -265 232 -84 55 -180 97 -258 112 -101 19 -221 24 -306
13z"/>
<path d="M10871 26939 c-24 -5 -71 -22 -105 -38 -58 -27 -87 -48 -252 -182
-89 -72 -112 -83 -212 -103 -77 -16 -172 -16 -243 0 -60 13 -236 12 -289 -2
-236 -63 -402 -299 -404 -579 -3 -329 118 -632 338 -850 l71 -70 28 -110 c15
-60 29 -117 31 -125 2 -8 21 -66 41 -128 126 -390 294 -662 489 -793 102 -69
177 -75 237 -21 47 42 49 95 10 224 -58 192 -75 302 -75 463 1 227 73 356 229
410 77 26 85 28 158 31 89 3 146 -20 227 -93 71 -65 125 -140 185 -261 41 -82
100 -243 125 -342 22 -86 80 -148 135 -145 92 5 142 58 193 200 31 86 44 171
44 298 1 87 -9 234 -17 267 -2 8 -6 31 -9 50 -19 126 -79 355 -133 505 -36
100 -41 128 -30 175 25 97 31 152 31 275 0 96 -6 167 -18 225 -21 97 -68 239
-97 288 -10 18 -19 37 -19 42 0 18 -66 117 -119 178 -86 100 -215 182 -328
208 -45 10 -174 12 -222 3z"/>
<path d="M20827 26784 c-1 -1 -27 -5 -58 -8 -31 -4 -66 -8 -77 -11 -11 -2 -35
-6 -54 -9 -20 -3 -48 -10 -64 -16 -16 -6 -31 -11 -34 -10 -9 2 -105 -23 -115
-30 -5 -3 -39 -17 -75 -30 -220 -78 -494 -261 -754 -503 -115 -108 -282 -291
-338 -371 -12 -17 -25 -33 -28 -36 -15 -12 -120 -173 -171 -260 -141 -243
-244 -513 -293 -765 -14 -68 -26 -109 -34 -114 -54 -34 -428 -401 -596 -586
-153 -168 -161 -177 -257 -295 -463 -567 -733 -1067 -814 -1510 -25 -134 -31
-342 -13 -442 19 -104 108 -217 204 -258 84 -36 186 -20 289 45 57 36 58 37
142 131 66 75 295 304 353 353 19 16 51 44 70 61 157 143 431 330 628 429 178
89 438 151 579 136 135 -14 268 -65 373 -144 75 -56 271 -256 306 -311 96
-153 132 -326 105 -500 -6 -36 -13 -83 -16 -105 -19 -122 -118 -363 -223 -540
-78 -132 -184 -288 -244 -360 -9 -11 -45 -55 -79 -99 -68 -85 -230 -264 -355
-391 -148 -151 -193 -293 -132 -422 25 -54 101 -123 174 -159 48 -24 68 -27
175 -29 114 -3 275 13 347 34 17 5 32 8 32 5 0 -3 8 0 19 5 10 6 32 13 50 16
103 18 451 177 636 291 170 105 465 324 630 469 145 127 207 186 395 374 118
119 242 247 275 286 33 38 67 76 75 85 35 38 80 91 149 174 l73 90 88 22 c100
25 282 86 350 116 150 67 177 80 194 89 10 6 35 20 55 31 144 81 237 143 368
245 282 220 540 513 733 833 122 202 190 380 235 615 26 136 26 391 0 520 -49
245 -158 462 -320 636 -133 143 -313 246 -635 363 -128 46 -233 85 -283 105
-100 39 -227 111 -267 151 -80 80 -264 301 -291 348 -14 26 -55 117 -91 202
-118 277 -126 294 -152 350 -30 62 -31 63 -105 180 -159 252 -471 449 -801
506 -76 13 -323 26 -333 18z"/>
<path d="M6268 26524 c-2 -1 -34 -4 -71 -5 -59 -2 -128 -13 -215 -33 -48 -11
-200 -82 -262 -122 -171 -110 -276 -249 -379 -499 -48 -116 -45 -110 -104
-240 -81 -182 -95 -200 -247 -320 -146 -115 -152 -119 -357 -195 -76 -28 -147
-55 -158 -60 -66 -30 -101 -43 -108 -41 -15 3 -121 -58 -167 -96 -67 -55 -167
-159 -198 -205 -89 -135 -152 -292 -171 -428 -10 -65 -7 -280 3 -332 3 -16 8
-38 10 -50 16 -90 74 -265 108 -327 99 -178 133 -231 236 -361 246 -311 553
-546 889 -681 74 -30 249 -84 301 -94 13 -2 25 -5 26 -7 4 -6 91 -113 101
-124 5 -6 54 -60 107 -120 163 -183 461 -468 618 -591 8 -6 40 -31 70 -55 86
-68 199 -148 209 -148 5 0 11 -4 13 -9 5 -14 174 -114 298 -176 108 -55 290
-119 415 -147 33 -7 120 -13 195 -13 152 0 168 5 247 78 65 60 87 125 68 207
-15 65 -50 115 -161 230 -264 272 -431 495 -544 725 -90 185 -119 283 -125
433 -5 100 20 208 67 291 38 66 190 225 268 280 30 21 87 51 125 67 64 26 80
28 190 28 106 -1 132 -4 223 -32 265 -83 553 -281 876 -604 99 -99 192 -188
207 -199 69 -49 170 -64 232 -34 71 33 140 125 152 200 8 52 8 186 0 250 -10
85 -51 255 -74 310 -5 11 -15 36 -22 55 -23 63 -100 223 -147 305 -96 168
-300 454 -432 605 -17 19 -56 64 -88 100 -69 80 -440 451 -504 505 -44 38 -48
45 -63 120 -57 278 -219 609 -418 855 -81 99 -239 254 -351 344 -228 183 -428
285 -645 331 -76 16 -237 35 -243 29z"/>
<path d="M13939 22682 c-148 -285 -250 -481 -283 -542 -51 -96 -556 -1105
-556 -1112 0 -3 -20 -48 -44 -99 -91 -196 -111 -240 -210 -474 -112 -261 -119
-278 -121 -285 0 -3 -28 -75 -62 -160 -143 -363 -281 -784 -379 -1155 -27
-103 -119 -503 -128 -555 -3 -19 -8 -46 -11 -60 -3 -14 -12 -68 -20 -120 -9
-52 -18 -108 -21 -125 -3 -16 -7 -43 -10 -60 -2 -16 -8 -61 -13 -100 -14 -95
-22 -161 -27 -215 -2 -25 -6 -72 -10 -105 -3 -33 -7 -78 -9 -100 -16 -235 -20
-340 -20 -587 0 -159 -3 -288 -8 -288 -10 0 -479 232 -682 338 -224 117 -503
273 -695 388 -85 52 -168 101 -185 111 -16 10 -31 21 -33 26 -2 4 -8 7 -13 7
-8 0 -413 267 -449 297 -8 7 -67 50 -130 97 -155 115 -150 111 -189 143 -119
97 -288 238 -302 252 -9 9 -54 50 -100 91 -150 135 -354 343 -527 540 -185
210 -452 576 -583 798 -17 28 -32 52 -34 52 -2 0 21 -71 50 -157 30 -87 91
-273 135 -413 128 -398 221 -617 344 -804 46 -70 305 -433 350 -491 8 -11 87
-114 174 -230 135 -180 290 -378 350 -450 10 -11 46 -56 81 -99 60 -73 220
-261 283 -331 15 -17 36 -41 48 -55 89 -103 238 -259 438 -455 412 -405 805
-799 867 -869 33 -38 74 -83 90 -100 17 -18 57 -63 90 -101 33 -39 62 -72 65
-75 15 -14 227 -270 311 -375 280 -353 613 -837 797 -1159 19 -34 42 -74 52
-91 202 -352 396 -753 544 -1125 43 -107 82 -204 86 -215 92 -223 280 -848
344 -1147 34 -158 107 -523 111 -562 3 -28 8 -58 10 -66 16 -62 14 -139 -3
-194 l-19 -59 -44 59 c-60 81 -218 282 -250 319 -14 17 -68 79 -119 138 -113
132 -352 374 -481 488 -433 381 -897 637 -1402 774 -132 36 -347 79 -452 90
-33 4 -68 9 -77 11 -10 3 -18 3 -18 1 0 -7 136 -107 144 -107 4 0 13 -6 20
-13 7 -7 58 -43 112 -80 277 -190 467 -329 638 -466 221 -176 317 -262 531
-473 589 -582 1000 -1227 1228 -1933 42 -128 82 -273 94 -335 2 -13 13 -61 23
-105 10 -45 22 -103 26 -131 3 -27 8 -52 10 -55 1 -3 6 -30 9 -59 4 -30 8 -57
10 -60 2 -3 6 -41 10 -85 4 -44 9 -88 11 -99 24 -128 23 -713 -1 -920 -2 -17
-6 -60 -10 -96 -3 -36 -8 -72 -10 -80 -2 -8 -7 -42 -11 -75 -10 -88 -10 -92
-29 -190 -9 -49 -18 -101 -20 -115 -5 -33 -10 -55 -39 -185 -14 -61 -27 -121
-30 -135 -3 -14 -19 -81 -36 -150 -16 -69 -33 -136 -36 -150 -3 -13 -16 -67
-30 -120 -14 -52 -27 -102 -29 -110 -6 -31 -28 -112 -87 -320 -147 -526 -289
-978 -609 -1945 -70 -214 -162 -491 -203 -615 -86 -263 -109 -324 -165 -443
-220 -473 -600 -850 -1121 -1113 -52 -27 -97 -49 -100 -49 -3 0 -14 -6 -25
-12 -85 -47 -635 -243 -682 -243 -11 0 -23 -3 -27 -7 -3 -4 -12 -8 -19 -9 -7
-2 -102 -25 -213 -53 -163 -41 -332 -79 -557 -126 -10 -2 -26 -6 -35 -9 -9 -3
-33 -8 -52 -11 -30 -5 -256 -50 -355 -70 -16 -3 -46 -8 -65 -11 -19 -3 -48 -9
-65 -14 -16 -5 -48 -11 -69 -15 -21 -3 -48 -7 -60 -10 -12 -3 -32 -7 -46 -9
-76 -13 -729 -147 -855 -176 -27 -7 -61 -14 -75 -16 -14 -3 -81 -19 -150 -35
-69 -17 -132 -32 -140 -34 -46 -10 -200 -51 -342 -91 -90 -25 -185 -52 -212
-59 -67 -19 -66 -23 6 -19 132 6 560 14 973 19 858 10 1201 25 1585 70 19 2
60 7 90 10 30 3 80 10 110 15 30 5 75 12 100 15 25 3 70 10 100 16 30 6 64 12
75 14 30 4 82 14 165 30 41 8 92 17 113 20 20 3 52 7 70 10 49 8 95 13 172 20
39 4 81 8 95 11 117 18 625 25 835 10 110 -8 126 -9 220 -20 28 -3 79 -8 115
-12 36 -3 74 -8 85 -10 11 -3 40 -7 65 -9 25 -3 56 -8 70 -10 14 -3 39 -7 55
-9 17 -3 62 -10 100 -17 39 -6 79 -13 90 -14 21 -4 165 -32 200 -39 11 -3 65
-14 120 -25 120 -25 364 -81 530 -121 66 -16 137 -32 159 -36 21 -3 48 -8 60
-10 65 -13 188 -18 416 -18 266 1 491 11 665 29 28 3 79 7 115 10 36 3 88 7
115 10 121 13 152 16 186 21 20 2 56 6 81 8 46 4 129 13 188 21 19 3 55 7 80
10 25 3 61 7 80 10 19 3 55 7 80 10 25 4 56 8 70 10 14 2 49 7 79 10 30 4 61
8 70 10 9 1 41 6 71 10 30 4 62 9 70 10 8 1 40 6 70 10 30 4 64 9 75 11 10 2
37 6 60 9 22 3 65 10 95 15 30 5 73 12 95 15 22 4 47 8 55 10 8 2 35 7 60 10
72 10 308 54 354 66 22 6 50 13 61 15 34 7 57 12 185 42 163 39 501 111 735
157 81 16 414 76 445 81 19 3 60 9 90 14 30 5 69 11 85 14 58 9 120 18 136 21
9 2 40 6 70 10 30 3 65 8 79 10 14 3 43 7 65 10 22 2 56 7 75 9 19 3 59 8 88
11 28 3 76 8 105 11 60 7 77 9 207 19 52 4 111 9 130 12 19 3 844 6 1833 8
988 1 1800 5 1804 9 3 3 -9 7 -28 8 -54 2 -116 9 -209 23 -251 39 -242 37
-570 99 -14 2 -61 12 -105 21 -44 9 -91 18 -105 20 -14 2 -117 22 -230 45
-113 22 -221 43 -240 46 -19 3 -43 7 -52 10 -10 3 -30 7 -45 10 -16 3 -39 7
-53 10 -76 13 -262 47 -305 54 -27 5 -66 11 -85 15 -72 12 -146 24 -185 30
-22 3 -53 8 -69 11 -53 9 -370 53 -431 59 -33 4 -67 8 -75 10 -8 2 -46 7 -85
10 -38 4 -81 8 -94 10 -13 3 -61 7 -105 10 -45 4 -92 8 -106 11 -14 2 -68 6
-120 9 -52 4 -120 8 -150 10 -368 27 -1065 26 -1345 -1 -22 -2 -102 -6 -178
-8 -222 -5 -368 26 -527 115 -144 80 -281 240 -365 423 -57 125 -122 352 -139
486 -3 19 -7 52 -10 73 -3 20 -8 52 -11 70 -27 195 -27 854 0 1127 10 96 25
376 41 765 10 232 11 1266 1 1500 -11 259 -15 347 -22 460 -4 55 -8 125 -10
155 -3 65 -16 231 -21 280 -2 19 -6 71 -9 115 -3 44 -7 94 -10 110 -2 17 -7
66 -10 110 -4 44 -8 87 -10 95 -2 8 -7 51 -11 95 -3 44 -8 88 -9 97 -2 9 -7
48 -10 85 -4 37 -8 75 -10 83 -3 8 -7 42 -10 75 -3 33 -10 85 -15 115 -5 30
-11 78 -14 105 -3 28 -8 61 -10 75 -3 14 -10 61 -16 105 -15 107 -19 135 -25
165 -3 14 -7 41 -10 60 -5 34 -18 107 -31 180 -3 19 -7 49 -10 65 -2 17 -6 41
-9 55 -2 14 -7 39 -10 55 -3 17 -7 41 -10 55 -3 14 -12 63 -20 110 -8 47 -17
96 -20 110 -3 14 -10 52 -16 85 -5 33 -19 105 -30 160 -11 55 -22 114 -25 130
-2 17 -13 75 -24 130 -10 55 -22 116 -25 135 -4 19 -13 71 -21 115 -35 192
-60 339 -89 515 -2 14 -6 39 -9 56 -3 17 -8 48 -11 70 -2 21 -7 55 -10 74 -3
19 -7 49 -9 65 -2 17 -7 46 -10 65 -3 19 -8 58 -11 85 -3 28 -8 64 -11 80 -2
17 -6 53 -9 80 -2 28 -6 68 -9 90 -3 22 -8 76 -11 120 -4 44 -8 96 -10 115
-21 214 -22 673 -1 855 2 17 6 65 10 107 4 42 8 85 10 95 2 10 7 41 10 68 10
71 17 114 22 139 34 182 62 307 91 411 68 245 163 506 263 720 28 61 51 111
51 112 -1 9 166 300 227 398 130 206 212 320 373 520 166 206 417 470 623 656
33 30 67 61 76 70 45 43 326 272 485 394 99 77 241 186 315 245 74 58 151 117
170 132 42 31 512 398 553 430 16 13 37 30 47 38 18 15 304 238 403 315 357
276 457 358 450 368 -5 10 -34 46 -104 131 -4 5 -40 -10 -79 -33 -40 -22 -74
-41 -76 -41 -2 0 -43 -22 -91 -48 -81 -45 -156 -85 -363 -195 -41 -22 -106
-56 -145 -77 -38 -21 -108 -58 -155 -83 -183 -96 -440 -234 -550 -295 -60 -33
-109 -60 -205 -112 -44 -24 -84 -46 -90 -50 -5 -4 -30 -19 -55 -32 -166 -92
-535 -315 -745 -449 -367 -236 -817 -578 -1095 -833 -101 -93 -375 -370 -450
-456 -41 -46 -79 -90 -85 -96 -21 -24 -89 -106 -136 -166 -28 -35 -55 -70 -62
-78 -72 -89 -267 -374 -267 -390 0 -5 -4 -10 -8 -10 -5 0 -18 -17 -29 -37 -11
-21 -51 -90 -88 -153 -38 -63 -112 -202 -165 -308 l-97 -194 -197 294 c-109
161 -257 381 -330 488 -72 107 -170 251 -216 320 -46 69 -88 126 -92 128 -4 2
-8 7 -8 12 0 5 -35 60 -77 123 -43 63 -82 121 -88 130 -9 14 -53 80 -184 275
-31 46 -60 91 -66 100 -5 9 -35 55 -66 102 -163 249 -457 721 -524 841 -67
120 -182 364 -230 484 -74 188 -154 445 -181 580 -2 11 -11 56 -20 100 -9 44
-18 89 -19 100 -2 11 -8 47 -14 80 -5 33 -13 87 -16 120 -4 33 -8 71 -10 85
-23 158 -23 700 0 841 2 13 6 52 9 85 3 34 8 79 11 100 3 22 8 55 11 74 35
259 120 621 219 940 13 41 45 143 71 225 25 83 60 193 76 245 16 52 35 113 43
135 16 48 68 212 125 395 23 74 50 160 60 190 24 70 102 321 104 334 1 6 17
56 35 111 19 55 37 114 41 130 4 17 42 138 83 270 139 446 202 664 215 745 15
93 7 488 -10 506 -2 1 -33 -54 -69 -124z"/>
<path d="M10446 22463 c-1 -1 -20 -5 -42 -9 -103 -16 -205 -68 -282 -144 -28
-28 -91 -103 -141 -168 -49 -64 -102 -129 -118 -143 -15 -15 -68 -45 -118 -67
-95 -42 -133 -51 -295 -67 -70 -8 -70 -8 -145 -25 -184 -42 -346 -208 -401
-410 -12 -47 -17 -102 -17 -195 0 -123 2 -136 37 -239 110 -325 307 -576 565
-719 l63 -35 73 -140 c282 -540 621 -888 915 -937 62 -11 109 4 152 47 40 40
40 42 35 95 -4 41 -18 74 -55 136 -256 429 -292 796 -94 938 193 139 335 145
513 24 133 -91 269 -254 399 -480 28 -49 60 -97 69 -106 95 -89 221 -36 256
106 4 17 9 39 12 50 12 48 9 235 -4 305 -8 41 -15 82 -17 90 -12 76 -86 278
-151 417 -64 135 -136 265 -222 396 l-63 98 -4 127 c-2 70 -6 138 -9 152 -4
14 -8 36 -11 50 -26 135 -99 302 -192 443 -77 115 -216 258 -296 306 -51 29
-163 79 -192 86 -72 14 -212 26 -220 18z"/>
<path d="M4287 22044 c-1 -1 -29 -4 -62 -8 -84 -9 -174 -41 -242 -86 -77 -52
-82 -56 -135 -122 -69 -85 -99 -175 -113 -343 -16 -197 -26 -230 -92 -323 -57
-81 -91 -115 -158 -160 -22 -14 -47 -33 -57 -42 -9 -8 -37 -32 -62 -54 -102
-86 -167 -226 -172 -374 -7 -225 116 -431 360 -603 114 -80 319 -176 413 -193
15 -3 52 -11 82 -17 31 -6 108 -12 172 -13 l116 -2 74 -46 c250 -155 535 -286
734 -337 80 -20 99 -24 185 -37 151 -22 345 11 397 69 78 85 52 174 -69 237
-305 159 -526 362 -575 529 -25 89 -14 163 40 263 62 113 116 162 207 187 167
45 412 -14 699 -170 69 -37 131 -64 156 -67 60 -6 102 18 127 76 19 43 20 52
9 107 -16 78 -68 183 -131 266 -58 78 -195 209 -289 279 -36 27 -70 53 -76 58
-47 38 -270 167 -397 230 -86 42 -157 82 -157 87 -1 18 -92 148 -150 214 -55
64 -168 160 -246 209 -122 78 -338 163 -446 177 -52 6 -138 12 -142 9z"/>
<path d="M15088 21409 c-239 -67 -414 -277 -507 -609 -31 -114 -50 -255 -45
-350 3 -71 15 -183 19 -191 2 -3 6 -16 8 -30 3 -13 12 -47 20 -75 12 -42 13
-55 1 -82 -13 -33 -72 -230 -80 -271 -3 -12 -12 -53 -20 -90 -9 -36 -18 -77
-20 -91 -3 -14 -9 -47 -14 -75 -28 -146 -35 -411 -14 -537 28 -173 100 -313
177 -346 93 -40 171 16 197 143 33 158 136 409 216 525 80 117 183 188 284
197 58 6 194 -23 251 -53 84 -43 150 -151 172 -280 16 -96 12 -286 -8 -382
-25 -117 -38 -174 -54 -236 -29 -109 -18 -158 45 -196 76 -48 189 -4 314 122
152 152 284 412 381 748 39 137 75 296 78 346 1 6 31 42 67 79 82 85 140 167
193 270 43 85 96 234 105 299 4 21 8 41 10 45 8 12 20 153 20 226 -1 230 -95
427 -257 537 -115 78 -235 104 -380 83 -277 -40 -300 -40 -415 3 -62 23 -109
51 -185 110 -128 98 -208 147 -273 165 -71 21 -204 19 -286 -4z"/>
<path d="M23159 20716 c-2 -2 -22 -6 -44 -9 -61 -9 -208 -54 -304 -93 -223
-92 -440 -237 -589 -394 -42 -44 -52 -56 -123 -148 -31 -41 -113 -170 -121
-192 -2 -4 -61 -36 -133 -70 -230 -111 -474 -254 -655 -385 -52 -37 -97 -71
-100 -74 -3 -3 -37 -32 -76 -63 -98 -79 -250 -239 -313 -328 -77 -110 -134
-229 -156 -325 -16 -74 -16 -87 0 -135 23 -70 72 -117 130 -125 64 -10 117 6
231 71 251 142 517 243 709 269 74 10 208 7 262 -6 154 -38 249 -129 341 -328
89 -192 29 -396 -176 -598 -104 -103 -241 -223 -255 -223 -4 0 -43 -25 -86
-55 -43 -30 -83 -55 -89 -55 -6 0 -17 -6 -24 -13 -7 -7 -53 -35 -103 -61 -96
-52 -135 -83 -166 -132 -52 -85 -1 -207 108 -256 90 -40 208 -58 353 -54 134
4 164 8 250 27 25 5 54 11 65 13 247 46 797 295 1100 498 l60 41 155 3 c85 3
169 4 187 4 17 0 34 4 37 9 3 5 15 7 26 4 11 -3 26 -1 33 5 7 6 23 9 35 5 12
-3 22 -1 22 5 0 5 10 10 23 9 24 0 75 17 207 71 257 104 506 281 652 463 207
258 254 596 120 864 -52 105 -115 170 -310 323 -198 156 -221 182 -281 327
-58 138 -55 123 -76 353 -23 243 -73 382 -181 501 -160 175 -331 249 -595 257
-80 2 -147 3 -150 0z"/>
<path d="M18071 19164 c-30 -8 -81 -29 -115 -47 -61 -32 -186 -146 -243 -222
-59 -77 -133 -230 -149 -307 -7 -33 -17 -100 -18 -123 0 -10 -14 -33 -29 -50
-152 -163 -311 -418 -373 -600 -35 -101 -43 -260 -17 -313 21 -42 65 -66 108
-58 33 6 47 20 120 112 17 21 73 81 125 134 149 151 272 201 389 158 70 -27
167 -120 176 -171 15 -77 -1 -167 -49 -282 -25 -60 -50 -111 -56 -113 -5 -2
-10 -10 -10 -17 0 -8 -7 -18 -16 -23 -9 -5 -15 -12 -14 -16 1 -4 -5 -17 -14
-29 -9 -12 -34 -46 -56 -76 -32 -43 -40 -63 -40 -97 0 -35 5 -47 32 -69 30
-25 37 -27 98 -22 110 9 213 60 351 173 113 94 257 258 361 412 27 40 52 71
55 68 4 -3 12 -1 19 4 6 6 22 13 33 15 12 2 34 12 49 23 15 10 44 26 64 36 21
9 42 24 47 34 6 9 11 13 11 8 0 -15 129 124 176 190 50 70 119 211 129 264 32
168 -4 310 -105 410 -60 61 -156 105 -270 125 -122 21 -197 82 -288 238 -33
56 -73 116 -90 133 -91 99 -246 137 -391 98z"/>
<path d="M4647 18454 c-1 -1 -42 -4 -92 -8 -49 -3 -99 -7 -110 -10 -11 -2 -40
-7 -65 -11 -53 -9 -173 -47 -239 -76 -290 -127 -484 -331 -573 -601 -53 -162
-53 -275 -2 -513 1 -5 20 -73 42 -150 36 -123 53 -187 68 -260 16 -76 13 -127
-17 -255 -33 -150 -55 -199 -175 -396 -210 -346 -246 -490 -200 -789 16 -106
109 -303 188 -400 104 -127 282 -268 423 -335 103 -49 297 -114 395 -134 14
-3 59 -12 100 -21 391 -81 834 -36 1182 121 69 31 81 33 120 25 24 -6 57 -12
73 -15 17 -3 41 -8 55 -11 14 -3 54 -10 90 -16 36 -5 77 -12 93 -14 67 -12 87
-14 162 -24 329 -42 587 -53 865 -37 155 9 172 11 340 42 123 22 246 58 358
106 86 37 198 99 212 118 3 4 13 11 22 16 46 25 117 107 132 152 64 190 -33
311 -269 337 -240 25 -470 74 -673 141 -189 63 -342 140 -442 223 -134 111
-196 200 -224 320 -13 55 -14 176 -3 246 3 17 8 50 12 75 16 107 60 201 128
274 52 55 72 70 177 124 205 108 493 150 870 128 161 -9 170 -10 366 -37 200
-28 312 38 328 193 11 101 -35 187 -174 328 -165 169 -398 303 -720 414 -120
42 -294 91 -415 117 -33 7 -64 14 -70 15 -124 28 -465 80 -590 89 -22 2 -69 6
-105 9 -36 3 -96 8 -133 11 -66 5 -72 7 -145 65 -112 87 -119 92 -207 145 -85
51 -258 135 -278 135 -7 0 -17 4 -22 8 -10 9 -166 59 -206 67 -11 2 -28 6 -37
9 -9 3 -35 8 -57 12 -22 3 -43 8 -46 10 -4 2 -28 6 -55 9 -26 4 -50 8 -53 10
-17 9 -393 28 -404 19z"/>
<path d="M14907 17660 c-192 -49 -312 -243 -322 -521 -5 -123 11 -216 53 -312
13 -31 16 -51 10 -77 -7 -34 -12 -65 -27 -182 -4 -32 -7 -120 -5 -195 3 -209
44 -356 123 -440 16 -18 36 -34 43 -34 7 -1 24 -3 38 -4 56 -6 84 34 95 138 3
37 18 109 31 160 59 220 146 310 286 293 133 -16 196 -94 216 -267 8 -69 8
-123 -2 -266 -5 -86 -4 -94 17 -117 28 -32 71 -40 114 -19 39 18 110 94 147
157 25 43 81 183 91 229 2 12 9 40 14 62 6 22 13 60 17 85 3 25 7 47 9 50 3 5
14 122 19 197 2 26 12 54 28 75 90 120 136 257 143 428 6 149 -25 260 -98 354
-86 110 -223 151 -367 110 -203 -57 -212 -57 -331 6 -52 28 -113 60 -136 71
-49 23 -151 32 -206 19z"/>
<path d="M9798 14975 c-2 -2 -30 -5 -63 -8 -70 -7 -84 -10 -145 -32 -151 -54
-272 -189 -300 -335 -6 -30 -11 -123 -11 -207 -1 -234 -6 -245 -193 -436 -132
-135 -163 -188 -181 -307 -45 -304 211 -590 625 -699 138 -37 305 -43 440 -18
3 0 41 -16 85 -37 217 -103 464 -187 615 -210 19 -3 53 -8 75 -12 132 -23 342
2 429 51 66 37 92 106 62 164 -19 36 -45 52 -152 96 -235 94 -433 243 -494
372 -31 65 -33 169 -3 233 11 25 24 55 27 67 11 35 80 102 128 123 106 47 245
45 437 -5 56 -14 88 -25 166 -54 11 -5 43 -18 70 -31 56 -25 126 -33 160 -18
49 22 73 105 48 168 -96 242 -379 454 -846 631 -71 27 -135 49 -143 49 -8 0
-14 4 -14 9 0 14 -94 125 -147 174 -137 127 -358 230 -548 257 -122 17 -124
17 -127 15z"/>
<path d="M6498 13504 c-262 -46 -432 -181 -472 -377 -23 -110 -6 -186 71 -315
58 -99 91 -186 87 -236 -2 -21 -19 -94 -39 -161 -42 -145 -47 -224 -17 -301
54 -144 172 -240 343 -280 78 -18 280 -13 377 11 12 3 30 7 40 9 68 17 222 91
259 125 27 26 57 40 79 39 24 -1 176 11 223 18 331 48 551 136 665 266 74 84
71 162 -5 192 -22 9 -50 14 -62 11 -55 -11 -120 -16 -220 -15 -128 0 -160 4
-249 31 -129 37 -191 112 -203 245 -10 107 25 179 121 244 88 59 220 100 407
125 110 15 165 38 168 71 6 64 -1 84 -37 118 -62 59 -173 109 -289 131 -146
28 -427 23 -620 -10 -88 -16 -89 -16 -150 9 -148 59 -321 77 -477 50z"/>
<path d="M22894 783 c10 -10 46 -11 40 -1 -3 4 -15 8 -26 8 -12 0 -18 -3 -14
-7z"/>
</g>
</svg>
